<!DOCTYPE svg PUBLIC "-//W3C//DTD SVG 1.1//EN" "http://www.w3.org/Graphics/SVG/1.1/DTD/svg11.dtd">
<!-- Uploaded to: SVG Repo, www.svgrepo.com, Transformed by: SVG Repo Mixer Tools -->
<svg height="800px" width="800px" version="1.1" id="Capa_1" xmlns="http://www.w3.org/2000/svg" xmlns:xlink="http://www.w3.org/1999/xlink" viewBox="0 0 302.305 302.305" xml:space="preserve" fill="#000000">
<g id="SVGRepo_bgCarrier" stroke-width="0"/>
<g id="SVGRepo_tracerCarrier" stroke-linecap="round" stroke-linejoin="round"/>
<g id="SVGRepo_iconCarrier"> <g> <path style="fill:#ffffff;" d="M138.114,201.025c-15.556,5.102-24.911,20.603-22.322,36.958 c2.774,17.514,20.516,28.381,37.497,24.166c14.435-3.579,22.697-19.76,22.219-33.662c-0.615-17.938-15.474-28.212-32.292-28.664 C141.187,199.774,139.507,200.253,138.114,201.025z M155.106,228.487c0.468,5.178-1.697,10.84-6.157,13.543 c-11.346,6.886-19.396-16.54-4.351-21.707C149.955,220.763,154.605,222.993,155.106,228.487z"/> <path style="fill:#ffffff;" d="M232.389,201.025c-15.556,5.102-24.911,20.603-22.322,36.958 c2.774,17.514,20.516,28.381,37.497,24.166c14.435-3.579,22.697-19.76,22.219-33.662c-0.615-17.938-15.474-28.212-32.292-28.664 C235.463,199.774,233.782,200.253,232.389,201.025z M249.381,228.487c0.468,5.178-1.697,10.84-6.157,13.543 c-11.346,6.886-19.396-16.54-4.351-21.707C244.23,220.763,248.881,222.993,249.381,228.487z"/> <path style="fill:#ffffff;" d="M289.179,164.991c-5.646,0.267-11.286,0.636-16.926,1.039c2.801-31.296,6.815-62.598,4.727-94.052 c-0.364-5.488-3.824-12.222-9.981-13.114c-52.607-7.582-105.425-5.793-158.402-5.64c-1.942,0.005-3.633,0.386-5.145,0.99 c-26.809-19.766-57.98-14.479-90.299-13.891c-17.519,0.321-17.552,27.516,0,27.195c17.024-0.31,33.978-1.828,51.002-1.044 c30.573,1.403,30.927,29.072,32.901,52.025c2.235,26.053,7.783,46.983,28.963,63.681c42.702,33.679,114.318,12.303,163.167,10.013 C306.638,191.371,306.72,164.17,289.179,164.991z M244.905,168.287c-18.313,1.632-36.621,3.285-54.994,3.862 c-27.13,0.848-55.576-6.587-63.289-36.045c-4.036-15.447-2.018-37.524-6.402-55.767c43.377-0.354,86.965-1.594,130.075,3.612 c0.582,27.989-2.943,55.881-5.396,83.762C244.883,167.923,244.916,168.091,244.905,168.287z"/> <path style="fill:#ffffff;" d="M137.347,92.809c-0.261,16.219-3.307,32.259-2.72,48.5c0.315,8.741,13.919,8.773,13.598,0 c-0.587-16.241,2.458-32.281,2.72-48.5C151.086,84.036,137.489,84.052,137.347,92.809z"/> <path style="fill:#ffffff;" d="M225.117,94.892c-0.261,16.219-3.307,32.259-2.72,48.5c0.315,8.741,13.919,8.773,13.598,0 c-0.587-16.241,2.458-32.281,2.72-48.5C238.856,86.119,225.259,86.13,225.117,94.892z"/> <path style="fill:#ffffff;" d="M164.668,92.809c-0.261,21.947-3.301,43.752-2.72,65.715c0.234,8.751,13.832,8.773,13.598,0 c-0.582-21.963,2.458-43.768,2.72-65.715C178.374,84.036,164.776,84.047,164.668,92.809z"/> <path style="fill:#ffffff;" d="M194.583,92.809c-0.261,21.947-3.302,43.752-2.72,65.715c0.234,8.751,13.832,8.773,13.598,0 c-0.582-21.963,2.458-43.768,2.72-65.715C208.289,84.036,194.691,84.047,194.583,92.809z"/> </g> </g>
</svg>